<?xml version="1.0" standalone="no"?>
<!DOCTYPE svg PUBLIC "-//W3C//DTD SVG 20010904//EN"
 "http://www.w3.org/TR/2001/REC-SVG-20010904/DTD/svg10.dtd">
<svg version="1.0" xmlns="http://www.w3.org/2000/svg"
 width="512.000000pt" height="512.000000pt" viewBox="0 0 512.000000 512.000000"
 preserveAspectRatio="xMidYMid meet">

<g transform="translate(0.000000,512.000000) scale(0.100000,-0.100000)"
fill="#000000" stroke="none">
<path d="M1709 4945 c-30 -16 -45 -49 -53 -118 -17 -140 -123 -246 -261 -263
-72 -8 -104 -23 -120 -55 -19 -35 -19 -63 0 -98 16 -32 48 -47 120 -55 138
-17 244 -123 261 -263 3 -26 10 -61 16 -76 12 -30 53 -57 88 -57 35 0 76 27
88 57 6 15 13 50 16 76 17 140 123 246 261 263 72 8 104 23 120 55 19 35 19
63 0 98 -16 32 -48 47 -118 55 -140 17 -246 123 -263 261 -8 72 -23 104 -55
120 -35 19 -66 18 -100 0z m101 -440 l44 -45 -47 -48 -47 -47 -47 47 -47 48
44 45 c24 25 47 45 50 45 3 0 26 -20 50 -45z"/>
<path d="M2711 4546 c-52 -29 -50 -9 -51 -783 0 -539 3 -729 12 -748 24 -53
36 -55 428 -55 198 0 360 -3 360 -7 0 -5 -11 -48 -23 -98 l-23 -90 -477 -3
-477 -2 0 180 c0 223 -14 301 -76 428 -96 196 -279 337 -491 378 -157 30 -296
10 -443 -62 -79 -39 -110 -62 -181 -133 -71 -71 -94 -102 -133 -181 -62 -127
-76 -205 -76 -431 l0 -179 -490 0 c-525 0 -529 0 -556 -51 -20 -40 -20 -458 0
-498 19 -36 55 -51 126 -51 l60 0 0 -960 c0 -722 3 -966 12 -985 13 -29 55
-55 88 -55 33 0 75 26 88 55 9 19 12 263 12 985 l0 960 329 0 329 0 4 -88 c7
-142 63 -233 177 -286 41 -19 68 -21 234 -24 l187 -4 0 -98 0 -98 -187 -4
c-208 -3 -240 -11 -316 -77 -92 -82 -121 -237 -64 -353 32 -64 80 -111 146
-142 41 -19 68 -21 234 -24 l187 -4 0 -198 0 -198 -187 -4 c-182 -3 -190 -4
-245 -31 -91 -45 -150 -128 -164 -231 -14 -101 61 -165 145 -122 28 15 51 53
51 86 0 33 23 71 51 86 21 10 69 14 189 14 l160 0 0 -60 c0 -71 15 -107 51
-126 35 -18 63 -18 98 0 36 19 51 55 51 126 l0 60 160 0 c120 0 168 -4 189
-14 28 -15 51 -53 51 -86 0 -33 23 -71 51 -86 84 -43 159 21 145 122 -14 103
-73 186 -164 231 -55 27 -63 28 -244 31 l-188 4 0 198 0 198 188 4 c207 3 239
11 315 77 92 82 121 237 64 353 -32 64 -80 111 -146 142 -41 19 -68 21 -233
24 l-188 4 0 98 0 98 188 4 c165 3 192 5 233 24 114 53 170 144 177 286 l4 88
299 0 299 0 0 -960 c0 -722 3 -966 12 -985 26 -57 -6 -55 918 -55 924 0 892
-2 918 55 9 19 12 263 12 985 l0 960 60 0 c70 0 111 17 128 55 8 18 12 97 12
246 0 231 -6 265 -47 285 -10 5 -218 11 -462 14 l-445 5 -23 90 c-12 50 -23
93 -23 98 0 4 162 7 360 7 392 0 404 2 428 55 17 37 17 1453 0 1490 -24 53
-41 55 -377 55 -334 0 -351 -2 -377 -51 -27 -52 -8 -115 41 -137 18 -8 103
-12 275 -12 l250 0 0 -600 0 -600 -930 0 -930 0 0 600 0 600 250 0 c273 0 295
4 318 55 23 51 7 107 -39 131 -39 20 -642 20 -678 0z m-849 -997 c187 -39 348
-200 387 -387 16 -77 15 -1112 -1 -1147 -25 -54 -31 -55 -488 -55 -457 0 -463
1 -488 55 -16 35 -17 1070 -1 1147 38 182 191 340 372 384 66 16 152 17 219 3z
m2075 -684 c12 -49 23 -93 23 -97 0 -5 -76 -8 -170 -8 -93 0 -170 3 -170 6 0
7 39 164 45 182 4 9 34 12 127 10 l122 -3 23 -90z m-2877 -405 l0 -100 -430 0
-430 0 0 100 0 100 430 0 430 0 0 -100z m3860 0 l0 -100 -1230 0 -1230 0 0
100 0 100 1230 0 1230 0 0 -100z m-200 -600 l0 -300 -730 0 -730 0 0 300 0
300 730 0 730 0 0 -300z m-2515 -512 c29 -13 55 -55 55 -88 0 -33 -26 -75 -55
-88 -37 -17 -853 -17 -890 0 -69 31 -71 137 -4 174 33 18 855 20 894 2z m2515
-288 l0 -300 -730 0 -730 0 0 300 0 300 730 0 730 0 0 -300z m0 -600 l0 -100
-730 0 -730 0 0 100 0 100 730 0 730 0 0 -100z"/>
<path d="M3741 1946 c-47 -26 -63 -84 -37 -135 25 -47 49 -51 287 -51 239 0
264 5 287 55 23 51 7 107 -39 131 -39 20 -462 20 -498 0z"/>
<path d="M3741 1146 c-47 -26 -63 -84 -37 -135 25 -47 49 -51 287 -51 239 0
264 5 287 55 23 51 7 107 -39 131 -39 20 -462 20 -498 0z"/>
<path d="M3741 4546 c-87 -48 -50 -186 49 -186 51 0 100 49 100 99 0 75 -83
124 -149 87z"/>
<path d="M3541 3946 c-36 -20 -50 -55 -51 -123 l0 -63 -60 0 c-71 0 -107 -15
-126 -51 -27 -52 -8 -115 41 -137 14 -7 53 -12 85 -12 l60 0 0 -60 c0 -34 6
-73 14 -89 35 -66 137 -66 172 0 8 16 14 55 14 89 l0 60 60 0 c71 0 107 15
126 51 27 52 8 115 -41 137 -14 7 -53 12 -85 12 l-60 0 0 60 c0 71 -15 107
-51 126 -34 17 -67 17 -98 0z"/>
<path d="M451 3746 c-36 -20 -50 -55 -51 -123 l0 -63 -60 0 c-71 0 -107 -15
-126 -51 -18 -35 -18 -63 0 -98 19 -36 55 -51 126 -51 l60 0 0 -60 c0 -34 6
-73 14 -89 35 -66 137 -66 172 0 8 16 14 55 14 89 l0 60 60 0 c71 0 107 15
126 51 27 52 8 115 -41 137 -14 7 -53 12 -85 12 l-60 0 0 60 c0 71 -15 107
-51 126 -34 17 -67 17 -98 0z"/>
</g>
</svg>
