<?xml version="1.0" standalone="no"?>
<!DOCTYPE svg PUBLIC "-//W3C//DTD SVG 20010904//EN"
 "http://www.w3.org/TR/2001/REC-SVG-20010904/DTD/svg10.dtd">
<svg version="1.0" xmlns="http://www.w3.org/2000/svg"
 width="512.000000pt" height="512.000000pt" viewBox="0 0 512.000000 512.000000"
 preserveAspectRatio="xMidYMid meet">

<g transform="translate(0.000000,512.000000) scale(0.100000,-0.100000)"
fill="#000000" stroke="none">
<path d="M1683 4899 c-509 -39 -965 -317 -1240 -754 -92 -145 -195 -413 -209
-539 -10 -94 53 -166 145 -166 84 0 123 41 151 158 91 380 351 708 699 882 77
38 239 92 336 111 107 21 408 18 515 -5 258 -56 481 -176 666 -361 365 -363
484 -898 308 -1385 -39 -108 -81 -189 -172 -326 -209 -314 -301 -589 -332
-994 -16 -209 -41 -311 -108 -445 -54 -108 -108 -183 -196 -270 -190 -189
-404 -282 -674 -292 -247 -10 -429 42 -617 175 -144 102 -254 233 -330 393
-55 118 -82 221 -99 383 -9 96 -17 133 -33 154 -65 89 -201 76 -248 -25 -32
-66 -3 -311 57 -493 105 -318 344 -596 641 -746 190 -96 368 -137 592 -136
510 2 951 277 1171 727 87 179 115 303 144 625 26 298 109 533 280 790 138
207 216 383 258 581 124 572 -53 1138 -478 1535 -327 305 -773 459 -1227 423z"/>
<path d="M1636 3955 c-309 -59 -578 -296 -674 -595 -45 -140 -60 -339 -29
-397 32 -61 54 -67 232 -74 173 -6 204 -14 244 -65 64 -81 38 -204 -54 -257
-12 -7 -88 -14 -185 -17 -150 -5 -168 -7 -196 -27 -62 -44 -64 -56 -64 -418 0
-370 6 -416 70 -550 106 -221 323 -366 571 -382 293 -19 564 185 624 472 28
132 13 198 -54 242 -66 45 -170 22 -205 -45 -8 -15 -19 -60 -24 -99 -18 -125
-72 -201 -181 -251 -149 -68 -357 5 -449 158 -51 86 -55 108 -59 360 l-5 236
99 11 c121 14 191 39 265 98 170 133 223 366 130 565 -34 72 -140 179 -212
212 -65 30 -142 48 -210 48 -28 0 -50 4 -50 8 0 23 36 124 62 177 45 88 163
202 258 249 339 166 741 -21 835 -389 8 -32 15 -82 15 -110 1 -110 63 -179
156 -172 66 4 107 34 129 92 36 93 -20 344 -112 500 -83 142 -232 277 -384
350 -156 74 -373 102 -543 70z"/>
<path d="M4311 3576 c-211 -113 -398 -218 -414 -235 -43 -42 -49 -120 -15
-171 31 -47 82 -72 133 -67 34 4 463 222 773 393 91 51 121 119 88 197 -24 56
-59 80 -124 84 l-57 3 -384 -204z"/>
<path d="M3824 2709 c-41 -12 -91 -69 -99 -113 -15 -78 46 -159 127 -171 24
-3 244 -5 490 -3 433 3 447 4 474 24 71 52 91 126 54 191 -45 80 -26 78 -550
80 -264 1 -479 -2 -496 -8z"/>
<path d="M3940 2023 c-56 -29 -83 -78 -78 -141 4 -40 11 -59 33 -82 16 -16
195 -118 409 -231 425 -225 448 -233 516 -187 47 32 72 82 67 135 -7 70 -33
93 -204 183 -87 46 -264 140 -393 208 -254 135 -289 146 -350 115z"/>
</g>
</svg>
