<?xml version="1.0" standalone="no"?>
<!DOCTYPE svg PUBLIC "-//W3C//DTD SVG 20010904//EN"
 "http://www.w3.org/TR/2001/REC-SVG-20010904/DTD/svg10.dtd">
<svg version="1.0" xmlns="http://www.w3.org/2000/svg"
 width="512.000000pt" height="512.000000pt" viewBox="0 0 512.000000 512.000000"
 preserveAspectRatio="xMidYMid meet">

<g transform="translate(0.000000,512.000000) scale(0.100000,-0.100000)"
fill="#000000" stroke="none">
<path d="M3411 5106 c-47 -26 -50 -44 -51 -314 0 -275 4 -297 55 -320 51 -23
107 -7 131 39 19 37 21 514 2 554 -22 48 -88 68 -137 41z"/>
<path d="M2580 4703 c-55 -20 -83 -89 -57 -139 8 -16 85 -98 170 -181 151
-150 156 -153 198 -153 61 0 99 37 99 98 0 44 -2 46 -152 199 -177 179 -202
196 -258 176z"/>
<path d="M4245 4682 c-22 -16 -102 -92 -177 -170 -135 -137 -138 -141 -138
-184 0 -61 38 -98 99 -98 42 0 47 3 198 153 85 83 162 165 170 181 31 59 -9
131 -78 142 -27 5 -42 0 -74 -24z"/>
<path d="M3366 4050 c-63 -16 -153 -70 -197 -117 -22 -24 -55 -74 -71 -110
-29 -61 -32 -76 -39 -227 -4 -93 -14 -186 -24 -221 -87 -323 -429 -612 -965
-818 -123 -47 -319 -109 -410 -130 -21 -5 -29 1 -52 38 -14 24 -46 58 -69 74
-82 60 -90 61 -671 61 -574 0 -571 0 -596 -55 -17 -38 -17 -2452 0 -2490 25
-55 22 -55 596 -55 581 0 589 1 671 61 23 16 55 50 69 74 15 25 33 42 40 40 7
-2 112 -30 234 -60 433 -109 546 -117 1428 -113 l645 3 67 32 c93 44 151 100
196 191 35 72 37 81 37 171 0 84 -4 104 -29 159 -16 34 -27 64 -25 66 2 1 28
16 57 31 69 37 126 100 165 183 29 61 32 76 32 162 0 83 -4 103 -29 158 -16
34 -27 64 -25 66 2 1 28 16 57 31 69 37 126 100 165 183 29 61 32 76 32 162 0
83 -4 103 -29 158 -16 34 -27 64 -25 66 2 1 28 16 57 31 69 37 126 100 165
183 29 61 32 76 32 163 0 90 -2 99 -37 171 -45 91 -103 147 -196 191 l-67 32
-417 3 c-230 2 -418 6 -418 10 0 4 16 55 35 114 88 276 132 660 106 928 -9 99
-16 125 -46 186 -65 132 -187 213 -333 220 -42 2 -94 -1 -116 -6z m185 -218
c43 -22 59 -38 82 -82 l29 -55 -5 -260 c-7 -334 -34 -495 -123 -737 l-37 -98
-179 0 c-135 0 -186 -3 -207 -14 -66 -35 -66 -137 0 -172 24 -12 139 -14 707
-14 l680 0 53 -28 c43 -22 59 -38 81 -81 36 -68 36 -114 0 -182 -22 -43 -38
-59 -81 -81 l-53 -28 -279 0 c-300 0 -320 -3 -345 -51 -27 -52 -8 -115 41
-137 17 -8 87 -12 204 -12 176 0 180 0 232 -28 43 -22 59 -38 81 -81 36 -68
36 -114 0 -182 -22 -43 -38 -59 -81 -81 l-53 -28 -279 0 c-300 0 -320 -3 -345
-51 -27 -52 -8 -115 41 -137 17 -8 87 -12 204 -12 174 0 179 -1 232 -27 45
-23 59 -37 82 -82 34 -69 34 -115 -1 -182 -22 -43 -38 -59 -81 -81 l-53 -28
-279 0 c-300 0 -320 -3 -345 -51 -18 -35 -18 -63 0 -98 24 -45 51 -51 245 -51
176 0 180 0 232 -28 43 -22 59 -38 81 -81 36 -68 36 -114 0 -182 -22 -43 -38
-59 -81 -81 l-53 -28 -618 0 c-641 0 -847 8 -1037 40 -101 18 -397 88 -530
126 l-53 15 0 918 0 917 153 43 c790 222 1302 613 1422 1086 11 42 20 130 24
220 6 139 8 153 33 197 21 34 41 53 80 72 67 33 112 33 179 -2z"/>
<path d="M2211 3846 c-47 -26 -63 -84 -37 -135 25 -47 49 -51 287 -51 239 0
264 5 287 55 23 51 7 107 -39 131 -39 20 -462 20 -498 0z"/>
<path d="M4211 3846 c-47 -26 -63 -84 -37 -135 25 -47 49 -51 287 -51 239 0
264 5 287 55 23 51 7 107 -39 131 -39 20 -462 20 -498 0z"/>
</g>
</svg>
