<?xml version="1.0" standalone="no"?>
<!DOCTYPE svg PUBLIC "-//W3C//DTD SVG 20010904//EN"
 "http://www.w3.org/TR/2001/REC-SVG-20010904/DTD/svg10.dtd">
<svg version="1.0" xmlns="http://www.w3.org/2000/svg"
 width="512.000000pt" height="512.000000pt" viewBox="0 0 512.000000 512.000000"
 preserveAspectRatio="xMidYMid meet">

<g transform="translate(0.000000,512.000000) scale(0.100000,-0.100000)"
fill="#000000" stroke="none">
<path d="M1777 4946 c-99 -36 -157 -123 -157 -238 l0 -68 -705 0 -706 0 -24
-25 c-25 -24 -25 -26 -25 -215 0 -189 0 -191 25 -215 13 -14 31 -25 40 -25 13
0 15 -95 15 -896 0 -675 3 -907 12 -938 23 -78 135 -166 211 -166 14 0 16 -50
19 -467 4 -500 3 -489 58 -635 66 -177 261 -372 438 -438 139 -52 150 -53 490
-58 l323 -3 -32 -36 c-50 -57 -71 -117 -76 -220 -5 -88 -5 -92 20 -117 l26
-26 1151 0 1151 0 24 25 c51 50 25 239 -43 325 -42 51 -109 99 -157 112 l-42
11 -57 213 c-31 117 -59 219 -61 226 -4 10 23 22 91 43 179 53 368 159 529
296 192 162 384 426 521 715 29 62 58 115 64 119 21 13 60 109 60 149 0 21 -5
57 -12 80 -16 55 -99 138 -154 154 -31 9 -333 12 -1263 12 -970 0 -1221 3
-1221 13 0 75 -222 2134 -233 2159 -48 115 -183 175 -300 134z m129 -169 l26
-23 109 -1045 c60 -574 109 -1050 109 -1056 0 -9 -22 -13 -80 -13 -54 0 -80 4
-80 11 0 7 -47 468 -105 1026 -58 557 -105 1027 -105 1044 0 37 39 79 74 79
14 0 37 -10 52 -23z m-306 -377 l0 -80 -640 0 -640 0 0 80 0 80 640 0 640 0 0
-80z m-80 -1135 l0 -896 -25 -24 -24 -25 -511 0 -511 0 -24 25 -25 24 0 896 0
895 560 0 560 0 0 -895z m245 20 c48 -465 75 -773 75 -847 l0 -118 -86 0 c-85
0 -86 0 -80 23 3 12 6 402 7 867 1 465 3 836 5 825 2 -11 38 -348 79 -750z
m3010 -830 c33 -32 33 -78 0 -110 l-24 -25 -1376 0 -1375 0 0 80 0 80 1375 0
1376 0 24 -25z m-3813 -703 l3 -408 37 -76 c45 -91 103 -147 196 -191 l67 -32
393 -3 c267 -2 392 -6 392 -14 0 -9 -59 -236 -76 -291 -5 -17 -27 -18 -412
-15 -387 4 -410 5 -472 26 -161 54 -305 176 -378 322 -69 137 -72 165 -72 658
l0 432 159 0 160 0 3 -408z m3708 403 c0 -11 -52 -107 -106 -197 -246 -406
-556 -637 -978 -731 -98 -21 -118 -22 -676 -22 -638 0 -635 0 -846 70 -266 88
-532 273 -684 474 -86 113 -170 305 -170 388 l0 23 1730 0 c952 0 1730 -2
1730 -5z m-3419 -504 c102 -137 296 -300 476 -402 l88 -49 -244 0 c-162 0
-257 4 -285 12 -55 16 -138 99 -154 154 -8 27 -12 120 -12 270 l0 229 45 -79
c24 -43 63 -104 86 -135z m1639 -606 c289 0 552 2 585 5 l59 5 73 -270 c77
-288 85 -305 143 -305 40 0 80 -17 114 -48 27 -25 56 -78 56 -102 0 -7 -332
-10 -1040 -10 -638 0 -1040 4 -1040 9 0 23 23 68 48 95 32 34 80 56 121 56 59
0 67 17 141 295 39 143 72 266 75 273 3 10 21 11 72 5 38 -4 304 -8 593 -8z"/>
<path d="M880 3987 c-49 -16 -133 -102 -148 -153 -28 -94 -8 -169 63 -239 101
-102 229 -102 331 0 31 31 54 64 59 83 7 36 10 37 45 17 53 -30 112 -7 126 51
12 48 -10 71 -118 125 -56 28 -118 64 -137 79 -63 49 -142 62 -221 37z m135
-172 c50 -49 15 -135 -55 -135 -41 0 -80 39 -80 80 0 41 39 80 80 80 19 0 40
-9 55 -25z"/>
<path d="M2825 4695 c-14 -13 -25 -31 -25 -40 0 -43 -62 -149 -124 -211 -62
-62 -168 -124 -211 -124 -27 0 -65 -47 -65 -80 0 -35 38 -80 68 -80 44 0 161
-71 218 -133 53 -58 114 -165 114 -202 0 -27 47 -65 80 -65 35 0 80 38 80 67
0 33 58 142 102 189 55 60 147 120 215 140 57 17 83 43 83 84 0 41 -26 67 -83
84 -70 20 -162 81 -216 142 -45 50 -101 155 -101 187 0 29 -45 67 -80 67 -19
0 -40 -9 -55 -25z m98 -315 c20 -27 61 -68 90 -91 28 -23 52 -45 52 -49 0 -4
-24 -26 -52 -49 -29 -23 -70 -64 -90 -91 -21 -28 -40 -50 -43 -50 -3 0 -22 22
-43 50 -20 27 -61 68 -90 91 -28 23 -52 45 -52 49 0 4 24 26 52 49 29 23 70
64 90 91 21 28 40 50 43 50 3 0 22 -22 43 -50z"/>
<path d="M4345 3975 c-21 -20 -25 -34 -25 -80 l0 -55 -55 0 c-67 0 -105 -29
-105 -80 0 -51 38 -80 105 -80 l55 0 0 -55 c0 -67 29 -105 80 -105 51 0 80 38
80 105 l0 55 55 0 c67 0 105 29 105 80 0 51 -38 80 -105 80 l-55 0 0 55 c0 67
-29 105 -80 105 -19 0 -40 -9 -55 -25z"/>
<path d="M3398 3590 c-9 -6 -33 -44 -53 -85 -46 -97 -112 -162 -212 -212 -86
-42 -105 -69 -87 -120 7 -21 28 -37 87 -66 100 -50 164 -114 214 -214 29 -59
45 -80 66 -87 51 -18 78 1 120 87 49 99 116 165 216 214 57 29 78 45 85 66 18
51 -2 78 -85 120 -100 49 -168 117 -215 212 -19 41 -44 80 -54 85 -23 13 -60
12 -82 0z m109 -320 l70 -70 -69 -68 -68 -69 -68 69 -69 68 66 69 c36 37 66
69 67 70 0 0 32 -30 71 -69z"/>
</g>
</svg>
