<?xml version="1.0" standalone="no"?>
<!DOCTYPE svg PUBLIC "-//W3C//DTD SVG 20010904//EN"
 "http://www.w3.org/TR/2001/REC-SVG-20010904/DTD/svg10.dtd">
<svg version="1.0" xmlns="http://www.w3.org/2000/svg"
 width="512.000000pt" height="512.000000pt" viewBox="0 0 512.000000 512.000000"
 preserveAspectRatio="xMidYMid meet">

<g transform="translate(0.000000,512.000000) scale(0.100000,-0.100000)"
fill="#000000" stroke="none">
<path d="M2525 5113 c-249 -33 -495 -191 -627 -403 -112 -179 -138 -300 -138
-632 l0 -230 -315 -1536 c-173 -846 -317 -1543 -320 -1551 -3 -8 -67 -92 -143
-187 l-137 -173 -318 -1 -318 0 -24 -25 c-24 -23 -25 -28 -25 -175 0 -147 1
-152 25 -175 l24 -25 791 0 791 0 24 25 c24 23 25 28 25 175 0 147 -1 152 -25
175 -22 23 -32 25 -120 25 l-95 0 0 156 0 156 320 1560 320 1560 0 222 c0 121
5 241 11 265 27 120 113 227 226 283 62 30 75 33 163 33 87 0 101 -3 161 -32
114 -56 201 -164 228 -284 6 -26 11 -217 11 -461 l0 -418 -55 0 c-46 0 -60 -4
-80 -25 -24 -23 -25 -28 -25 -178 l0 -153 -57 -18 c-280 -88 -523 -338 -616
-631 -47 -150 -48 -179 -45 -1190 l3 -950 24 -60 c33 -82 124 -173 206 -206
l60 -24 1034 -3 c909 -2 1041 0 1095 13 260 66 425 377 361 680 -39 187 -186
362 -339 405 l-45 12 -3 592 c-4 569 -5 594 -25 668 -83 293 -262 517 -518
645 -76 39 -209 81 -280 89 l-55 7 0 139 c0 134 -1 140 -25 163 -20 21 -34 25
-79 25 l-55 0 -3 473 c-4 447 -5 476 -26 547 -97 341 -362 586 -697 645 -81
14 -199 17 -270 8z m273 -170 c22 -5 20 -10 -44 -74 -45 -45 -76 -69 -91 -69
-22 0 -23 3 -23 81 l0 82 68 -7 c37 -4 78 -10 90 -13z m-318 -86 l0 -84 -37
-11 c-38 -12 -38 -11 -95 45 -32 32 -54 61 -49 66 10 10 152 66 169 67 9 0 12
-23 12 -83z m556 -17 c24 -17 44 -34 44 -38 0 -4 -24 -31 -53 -60 l-54 -53
-52 32 -52 33 58 58 c31 32 59 58 61 58 2 0 23 -14 48 -30z m-805 -224 l-40
-40 -80 19 c-45 10 -81 20 -81 23 0 10 46 70 84 110 l40 42 58 -57 58 -58 -39
-39z m1009 19 c17 -25 42 -70 56 -100 l24 -55 -89 0 -89 0 -27 46 -27 46 53
54 c29 30 57 54 61 54 4 0 21 -20 38 -45z m-1134 -208 c3 -2 -3 -45 -13 -96
l-18 -91 -77 0 -78 0 0 29 c0 33 26 177 35 190 4 8 140 -21 151 -32z m1254
-187 l0 -80 -80 0 -80 0 0 64 c0 35 -3 71 -6 80 -5 14 6 16 80 16 l86 0 0 -80z
m-1280 -240 l0 -80 -80 0 -80 0 0 80 0 80 80 0 80 0 0 -80z m1280 -80 l0 -80
-80 0 -80 0 0 80 0 80 80 0 80 0 0 -80z m-1302 -177 c-2 -10 -139 -676 -304
-1480 l-299 -1463 -79 0 c-76 0 -78 1 -73 23 3 12 139 678 304 1479 l298 1458
79 0 c70 0 78 -2 74 -17z m1302 -183 l0 -120 -80 0 -80 0 0 120 0 120 80 0 80
0 0 -120z m160 -360 l0 -80 -240 0 -240 0 0 80 0 80 240 0 240 0 0 -80z m-224
-254 c225 -60 400 -307 449 -636 12 -78 15 -279 15 -1123 l0 -1027 -643 2
-644 3 -48 30 c-36 22 -57 45 -77 84 l-29 55 4 975 c3 1085 -2 1009 72 1167
62 135 171 265 288 344 94 62 237 118 342 133 71 10 224 6 271 -7z m450 -5
c159 -33 306 -114 420 -233 112 -116 183 -249 215 -402 17 -82 19 -143 19
-642 l0 -551 -46 -13 c-25 -7 -71 -30 -102 -50 -265 -171 -332 -569 -142 -845
l31 -45 -111 0 -110 0 0 1028 c0 650 -4 1059 -10 1112 -29 235 -123 454 -259
603 l-53 57 28 0 c16 0 70 -9 120 -19z m852 -2010 c152 -78 236 -296 187 -484
-31 -120 -97 -211 -187 -259 -34 -18 -59 -23 -118 -23 -59 0 -84 5 -118 23
-206 109 -265 426 -118 639 34 50 108 107 160 123 49 15 146 5 194 -19z
m-3158 -411 l0 -120 -196 0 c-187 0 -195 1 -182 18 7 10 49 64 93 120 l80 101
103 1 102 0 0 -120z m240 -320 l0 -40 -680 0 -680 0 0 40 0 40 680 0 680 0 0
-40z"/>
<path d="M2921 2624 c-253 -68 -410 -331 -346 -579 50 -190 207 -330 401 -358
329 -48 612 266 529 586 -67 259 -333 419 -584 351z m254 -175 c63 -30 123
-90 155 -154 35 -71 35 -197 0 -270 -31 -64 -91 -124 -155 -155 -73 -35 -199
-35 -270 0 -64 31 -124 91 -155 155 -20 41 -25 65 -24 135 0 72 4 93 26 136
15 28 38 64 52 81 27 32 112 82 160 94 55 14 157 4 211 -22z"/>
<path d="M2504 1495 l-25 -25 3 -348 c3 -340 3 -348 27 -407 33 -82 124 -173
206 -206 56 -22 75 -24 295 -27 256 -4 312 3 393 46 66 35 140 119 169 190 22
55 23 68 26 404 l3 348 -25 25 -25 25 -511 0 -511 0 -25 -25z m936 -407 c0
-304 -3 -320 -70 -385 -61 -60 -89 -64 -346 -61 l-231 3 -48 30 c-36 22 -57
45 -77 84 l-28 53 0 274 0 274 400 0 400 0 0 -272z"/>
<path d="M2800 1080 l0 -120 80 0 80 0 0 120 0 120 -80 0 -80 0 0 -120z"/>
<path d="M620 2864 c-142 -52 -229 -183 -218 -327 26 -318 443 -407 597 -127
33 60 36 71 36 150 -1 72 -5 93 -27 136 -39 75 -70 107 -138 143 -76 41 -179
51 -250 25z m163 -158 c103 -43 128 -177 48 -257 -65 -65 -157 -65 -222 0
-124 123 13 325 174 257z"/>
<path d="M0 2110 l0 -80 80 0 80 0 0 80 0 80 -80 0 -80 0 0 -80z"/>
<path d="M960 1920 l0 -80 80 0 80 0 0 80 0 80 -80 0 -80 0 0 -80z"/>
<path d="M25 1685 c-14 -13 -25 -34 -25 -47 0 -13 17 -81 38 -152 l39 -130
-41 -137 c-43 -151 -43 -171 8 -205 25 -15 32 -14 168 25 l142 41 138 -41
c123 -36 140 -39 165 -27 15 7 34 26 41 41 12 25 9 42 -27 165 l-40 137 40
143 c39 136 40 143 25 168 -34 51 -54 51 -204 8 l-137 -40 -130 38 c-72 20
-140 38 -153 38 -13 0 -34 -11 -47 -25z m266 -200 c64 -17 67 -17 139 4 41 11
75 20 76 18 1 -1 -7 -29 -17 -62 -24 -76 -24 -99 1 -177 11 -34 20 -64 20 -64
0 -1 -35 8 -78 19 l-79 21 -77 -21 c-71 -20 -78 -20 -73 -5 43 151 42 138 23
200 -30 97 -29 95 -15 90 8 -3 44 -13 80 -23z"/>
<path d="M1840 800 l0 -80 80 0 80 0 0 80 0 80 -80 0 -80 0 0 -80z"/>
<path d="M560 720 l0 -80 80 0 80 0 0 80 0 80 -80 0 -80 0 0 -80z"/>
</g>
</svg>
