<?xml version="1.0" standalone="no"?>
<!DOCTYPE svg PUBLIC "-//W3C//DTD SVG 20010904//EN"
 "http://www.w3.org/TR/2001/REC-SVG-20010904/DTD/svg10.dtd">
<svg version="1.0" xmlns="http://www.w3.org/2000/svg"
 width="512.000000pt" height="512.000000pt" viewBox="0 0 512.000000 512.000000"
 preserveAspectRatio="xMidYMid meet">

<g transform="translate(0.000000,512.000000) scale(0.100000,-0.100000)"
fill="#000000" stroke="none">
<path d="M3914 5097 c-24 -21 -27 -33 -35 -117 -34 -372 -211 -618 -495 -690
-43 -11 -104 -20 -136 -20 -62 0 -111 -18 -122 -45 -13 -36 -6 -82 17 -102 17
-16 45 -23 123 -32 128 -13 214 -40 292 -90 183 -119 294 -333 321 -619 9
-101 22 -126 71 -137 34 -7 86 16 94 42 3 10 10 61 16 113 32 307 166 533 375
631 72 34 164 59 220 59 112 2 165 32 165 94 0 57 -34 78 -144 87 -110 9 -225
45 -299 93 -174 111 -287 324 -317 597 -6 57 -16 111 -21 121 -23 43 -84 50
-125 15z m78 -540 c47 -114 172 -259 286 -332 34 -22 62 -42 62 -45 0 -3 -17
-15 -38 -27 -113 -64 -225 -185 -293 -316 l-41 -79 -23 51 c-57 123 -178 261
-289 331 -30 19 -55 37 -56 40 0 3 28 24 63 47 113 75 239 224 286 341 7 17
16 32 20 32 3 0 14 -19 23 -43z"/>
<path d="M490 4771 c-78 -24 -157 -99 -178 -169 -9 -30 -12 -576 -12 -2214 0
-2371 -4 -2215 56 -2293 14 -19 53 -48 87 -65 l60 -30 1752 0 c1926 0 1799 -4
1877 60 20 17 48 53 62 82 l26 52 0 1413 0 1414 -25 24 c-31 32 -75 32 -112 1
l-28 -24 -5 -1409 c-3 -774 -6 -1409 -8 -1410 -1 -1 -15 -9 -32 -18 -26 -13
-227 -15 -1755 -15 l-1727 0 -29 29 -29 29 0 2162 0 2162 29 29 29 29 1522 0
1521 0 24 25 c42 41 31 105 -22 133 -25 14 -3039 16 -3083 3z"/>
<path d="M694 4430 c-12 -5 -29 -19 -38 -32 -15 -20 -16 -201 -16 -2011 l0
-1989 29 -29 29 -29 1557 0 c1164 0 1562 3 1578 12 12 6 27 18 34 27 10 12 12
313 13 1329 l0 1313 -25 24 c-36 37 -86 34 -119 -6 l-26 -31 0 -269 0 -269
-680 0 -680 0 0 900 0 900 315 0 c300 0 316 1 335 20 43 43 34 110 -20 137
-20 10 -268 13 -1145 12 -616 0 -1130 -4 -1141 -9z m1481 -1060 l0 -895 -680
0 -680 0 -3 898 -2 897 682 -2 683 -3 0 -895z m3 -1962 l-3 -893 -682 -3 -683
-2 0 895 0 895 685 0 685 0 -2 -892z m1532 -3 l0 -895 -680 0 -680 0 0 895 0
895 680 0 680 0 0 -895z"/>
<path d="M1132 3937 c-169 -171 -176 -184 -123 -238 21 -20 39 -29 62 -29 28
0 50 18 172 138 76 75 145 150 154 166 29 55 -10 116 -75 116 -36 0 -47 -9
-190 -153z"/>
<path d="M1357 3743 c-192 -192 -355 -360 -363 -375 -8 -15 -14 -36 -14 -47 0
-30 41 -70 78 -77 33 -7 39 -1 403 362 349 348 369 371 369 405 0 48 -33 79
-85 79 -38 0 -49 -10 -388 -347z"/>
<path d="M2669 1981 c-138 -137 -149 -151 -149 -185 0 -50 36 -86 86 -86 35 0
48 10 186 148 138 138 148 151 148 186 0 50 -36 86 -86 86 -34 0 -48 -11 -185
-149z"/>
<path d="M2883 1767 c-349 -349 -363 -364 -363 -400 0 -49 36 -87 82 -87 29 0
66 34 396 363 199 199 365 372 368 385 8 28 -13 80 -37 92 -10 6 -33 10 -51
10 -30 0 -65 -32 -395 -363z"/>
<path d="M2994 3916 c-36 -16 -54 -56 -54 -121 0 -23 -9 -76 -19 -117 -54
-210 -177 -326 -366 -347 -82 -10 -109 -25 -120 -68 -8 -34 10 -77 38 -91 12
-6 57 -15 99 -20 87 -11 146 -36 205 -87 86 -74 146 -211 162 -373 8 -75 12
-89 36 -109 59 -51 129 -14 139 73 23 190 60 290 135 375 72 80 183 129 296
129 59 0 98 67 70 120 -18 35 -49 50 -105 50 -54 0 -154 33 -198 65 -110 81
-175 221 -197 426 -9 84 -58 122 -121 95z m90 -529 c26 -37 69 -84 94 -104
l47 -36 -80 -81 c-45 -45 -87 -96 -94 -113 -7 -18 -16 -33 -20 -33 -3 0 -19
23 -36 51 -16 28 -60 79 -96 113 l-67 62 40 28 c44 32 112 114 136 164 9 18
19 29 22 25 4 -5 28 -39 54 -76z"/>
</g>
</svg>
