<?xml version="1.0" standalone="no"?>
<!DOCTYPE svg PUBLIC "-//W3C//DTD SVG 20010904//EN"
 "http://www.w3.org/TR/2001/REC-SVG-20010904/DTD/svg10.dtd">
<svg version="1.0" xmlns="http://www.w3.org/2000/svg"
 width="512.000000pt" height="512.000000pt" viewBox="0 0 512.000000 512.000000"
 preserveAspectRatio="xMidYMid meet">

<g transform="translate(0.000000,512.000000) scale(0.100000,-0.100000)"
fill="#000000" stroke="none">
<path d="M960 4530 c-17 -17 -20 -33 -20 -115 0 -107 14 -135 68 -135 51 0 62
25 62 138 0 93 -2 102 -22 116 -31 22 -64 20 -88 -4z"/>
<path d="M2411 4484 c-41 -14 -97 -40 -125 -59 -28 -19 -360 -344 -738 -722
-671 -672 -688 -690 -722 -763 -59 -128 -69 -235 -36 -364 25 -97 66 -170 141
-251 l59 -62 -55 -194 c-60 -214 -121 -349 -248 -551 -37 -58 -67 -117 -67
-129 0 -18 102 -126 398 -421 320 -321 402 -398 423 -398 30 0 456 271 614
391 54 41 106 80 116 87 16 12 23 10 61 -21 179 -147 426 -165 621 -47 38 23
271 249 746 724 662 664 691 694 725 765 46 95 59 165 54 271 -6 96 -30 175
-80 253 -18 29 -120 141 -227 249 -174 177 -193 200 -185 219 8 18 46 33 204
80 199 59 230 75 230 121 0 41 -41 62 -230 117 -102 30 -189 58 -194 62 -5 4
-28 87 -51 184 -45 185 -59 215 -105 215 -46 0 -61 -30 -106 -216 -23 -96 -45
-178 -49 -182 -4 -4 -23 -12 -43 -18 l-37 -11 -305 301 c-326 322 -358 347
-486 380 -95 24 -214 21 -303 -10z m241 -115 c108 -23 139 -47 421 -327 147
-147 267 -269 267 -273 0 -3 -29 -14 -65 -24 -36 -9 -76 -26 -90 -37 -30 -24
-33 -68 -6 -92 11 -10 104 -43 208 -73 103 -31 192 -59 197 -63 4 -5 27 -87
51 -184 25 -106 49 -184 60 -196 37 -41 98 -14 115 50 5 22 15 59 21 82 l11
41 164 -164 c128 -127 171 -177 195 -224 38 -77 52 -161 39 -239 -21 -131 -7
-115 -729 -839 -366 -368 -684 -681 -707 -697 -112 -79 -275 -92 -396 -32 -35
17 -74 42 -86 55 l-22 23 481 479 c264 264 492 500 507 525 22 37 27 57 27
110 0 81 -30 140 -97 189 l-47 35 34 37 c45 51 65 91 72 147 10 92 -29 175
-109 228 l-46 31 55 54 c91 90 117 166 89 261 -52 179 -278 228 -410 89 l-29
-30 -27 43 c-46 72 -112 106 -204 106 -98 -1 -111 -11 -553 -453 -227 -226
-413 -407 -413 -402 0 6 19 92 42 192 39 172 41 184 29 237 -16 74 -62 133
-130 168 -127 67 -294 10 -346 -117 -7 -16 -52 -172 -101 -345 -48 -173 -89
-317 -90 -319 -7 -9 -57 60 -86 117 -59 118 -50 267 23 382 15 25 331 347 701
717 588 587 680 675 730 698 93 42 164 52 250 34z m1103 -560 c11 -64 38 -85
149 -117 54 -16 95 -31 90 -34 -5 -3 -43 -16 -84 -27 -135 -39 -140 -44 -156
-125 -9 -53 -22 -53 -30 0 -10 69 -35 90 -139 120 -49 14 -94 28 -99 31 -5 4
36 19 90 35 114 33 138 53 148 122 8 54 21 52 31 -5z m-1117 -490 c39 -14 62
-48 62 -96 0 -36 -16 -53 -385 -423 -259 -259 -385 -393 -385 -407 0 -35 38
-73 73 -73 28 0 82 51 514 482 480 480 483 483 524 483 54 0 99 -46 99 -102 0
-36 -20 -57 -485 -523 -329 -330 -485 -492 -485 -506 0 -12 9 -33 21 -48 44
-56 45 -55 434 333 237 237 369 362 388 366 66 17 127 -31 127 -98 0 -40 -5
-46 -380 -422 -341 -342 -380 -385 -380 -413 0 -39 30 -72 67 -72 22 0 79 51
308 280 301 300 311 308 373 276 52 -27 67 -79 38 -134 -17 -32 -894 -907
-1014 -1011 -121 -105 -240 -191 -480 -346 l-214 -138 -339 339 -340 340 52
84 c75 124 176 332 198 409 11 36 86 302 166 591 81 289 154 537 161 551 18
36 77 63 119 55 42 -8 95 -66 95 -104 0 -15 -30 -155 -66 -312 -36 -157 -66
-297 -67 -312 -1 -38 29 -68 67 -68 27 0 89 58 541 509 280 280 517 511 525
514 23 8 35 8 68 -4z"/>
<path d="M710 4273 c-25 -9 -40 -35 -40 -69 0 -51 28 -64 133 -64 80 0 90 2
112 25 32 31 32 59 0 90 -22 23 -32 25 -107 24 -46 0 -90 -3 -98 -6z"/>
<path d="M1120 4273 c-25 -9 -40 -35 -40 -69 0 -51 28 -64 133 -64 80 0 90 2
112 25 32 31 32 59 0 90 -22 23 -32 25 -107 24 -46 0 -90 -3 -98 -6z"/>
<path d="M960 4120 c-17 -17 -20 -33 -20 -115 0 -107 14 -135 68 -135 51 0 62
25 62 138 0 93 -2 102 -22 116 -31 22 -64 20 -88 -4z"/>
<path d="M4393 1638 c-68 -33 -40 -138 37 -138 28 0 70 44 70 73 0 51 -61 88
-107 65z"/>
<path d="M3862 1198 c-209 -36 -260 -320 -78 -432 55 -35 141 -46 201 -26 47
15 111 72 135 119 89 177 -61 374 -258 339z m121 -168 c85 -94 -52 -222 -144
-134 -48 46 -39 127 19 159 40 22 91 12 125 -25z"/>
</g>
</svg>
